<svg width="17" height="17" viewBox="0 0 17 17" fill="none" xmlns="http://www.w3.org/2000/svg">
<path d="M17 8.5C17 10.2079 17 11.3598 16.9603 11.9953C16.8808 13.5444 16.4439 14.736 15.5701 15.5701C14.6963 16.4042 13.5444 16.8808 11.9953 16.9603C11.3598 17 10.1682 17 8.5 17C6.79206 17 5.64019 17 5.00467 16.9603C3.45561 16.8808 2.26402 16.4439 1.42991 15.5701C0.595794 14.736 0.119159 13.5444 0.0397196 11.9953C-3.84715e-08 11.3598 0 10.1682 0 8.5C0 6.83178 -3.84715e-08 5.64019 0.0397196 5.00467C0.119159 3.45561 0.556075 2.26402 1.42991 1.42991C2.26402 0.595794 3.45561 0.119159 5.00467 0.0397196C5.64019 -3.84715e-08 6.83178 0 8.5 0C10.2079 0 11.3598 -3.84715e-08 11.9953 0.0397196C13.5444 0.119159 14.736 0.556075 15.5701 1.42991C16.4042 2.30374 16.8808 3.45561 16.9603 5.00467C16.9603 5.64019 17 6.79206 17 8.5ZM9.33411 1.50935C8.81776 1.50935 8.53972 1.50935 8.5 1.50935C8.46028 1.50935 8.18224 1.50935 7.66589 1.50935C7.14953 1.50935 6.75234 1.50935 6.51402 1.50935C6.23598 1.50935 5.8785 1.50935 5.44159 1.54907C5.00467 1.54907 4.60748 1.58879 4.28972 1.66822C3.97196 1.70794 3.69393 1.78738 3.49533 1.86682C3.13785 2.0257 2.82009 2.2243 2.50234 2.50234C2.2243 2.78037 2.0257 3.09813 1.86682 3.49533C1.78738 3.69392 1.70794 3.97196 1.66822 4.28972C1.6285 4.60748 1.58878 4.96495 1.54907 5.44159C1.54907 5.87851 1.50935 6.23598 1.50935 6.51402C1.50935 6.79206 1.50935 7.18925 1.50935 7.66589C1.50935 8.18224 1.50935 8.46028 1.50935 8.5C1.50935 8.53972 1.50935 8.81776 1.50935 9.33411C1.50935 9.85047 1.50935 10.2477 1.50935 10.486C1.50935 10.764 1.50935 11.1215 1.54907 11.5584C1.54907 11.9953 1.58878 12.3925 1.66822 12.7103C1.74766 13.028 1.78738 13.3061 1.86682 13.5047C2.0257 13.8621 2.2243 14.1799 2.50234 14.4977C2.78037 14.7757 3.09813 14.9743 3.49533 15.1332C3.69393 15.2126 3.97196 15.2921 4.28972 15.3318C4.60748 15.3715 4.96495 15.4112 5.44159 15.4509C5.91822 15.4907 6.23598 15.4907 6.51402 15.4907C6.79206 15.4907 7.18925 15.4907 7.66589 15.4907C8.18224 15.4907 8.46028 15.4907 8.5 15.4907C8.53972 15.4907 8.81776 15.4907 9.33411 15.4907C9.85047 15.4907 10.2477 15.4907 10.486 15.4907C10.764 15.4907 11.1215 15.4907 11.5584 15.4509C11.9953 15.4509 12.3925 15.4112 12.7103 15.3318C13.028 15.2921 13.3061 15.2126 13.5047 15.1332C13.8621 14.9743 14.1799 14.7757 14.4977 14.4977C14.7757 14.2196 14.9743 13.9019 15.1332 13.5047C15.2126 13.3061 15.2921 13.028 15.3318 12.7103C15.3715 12.3925 15.4112 12.035 15.4509 11.5584C15.4509 11.1215 15.4907 10.764 15.4907 10.486C15.4907 10.2079 15.4907 9.81075 15.4907 9.33411C15.4907 8.81776 15.4907 8.53972 15.4907 8.5C15.4907 8.46028 15.4907 8.18224 15.4907 7.66589C15.4907 7.14953 15.4907 6.75234 15.4907 6.51402C15.4907 6.23598 15.4907 5.87851 15.4509 5.44159C15.4509 5.00467 15.4112 4.60748 15.3318 4.28972C15.2921 3.97196 15.2126 3.69392 15.1332 3.49533C14.9743 3.13785 14.7757 2.82009 14.4977 2.50234C14.2196 2.2243 13.9019 2.0257 13.5047 1.86682C13.3061 1.78738 13.028 1.70794 12.7103 1.66822C12.3925 1.6285 12.035 1.58879 11.5584 1.54907C11.1215 1.54907 10.764 1.50935 10.486 1.50935C10.2477 1.50935 9.85047 1.50935 9.33411 1.50935ZM11.5584 5.40187C12.3925 6.23598 12.8294 7.26869 12.8294 8.5C12.8294 9.73131 12.3925 10.7243 11.5584 11.5981C10.7243 12.4322 9.69159 12.8692 8.46028 12.8692C7.22897 12.8692 6.23598 12.4322 5.36215 11.5981C4.52804 10.764 4.09112 9.73131 4.09112 8.5C4.09112 7.26869 4.52804 6.2757 5.36215 5.40187C6.19626 4.56776 7.22897 4.13084 8.46028 4.13084C9.69159 4.13084 10.7243 4.52804 11.5584 5.40187ZM10.486 10.486C11.0421 9.92991 11.3201 9.25467 11.3201 8.5C11.3201 7.74533 11.0421 7.03037 10.486 6.4743C9.92991 5.91822 9.25467 5.64019 8.46028 5.64019C7.66589 5.64019 6.99065 5.91822 6.43458 6.4743C5.87851 7.03037 5.60047 7.70561 5.60047 8.5C5.60047 9.29439 5.87851 9.96963 6.43458 10.486C6.99065 11.0421 7.66589 11.3201 8.46028 11.3201C9.25467 11.3201 9.92991 11.0421 10.486 10.486ZM13.743 3.21729C13.9416 3.41589 14.0607 3.65421 14.0607 3.93224C14.0607 4.21028 13.9416 4.4486 13.743 4.6472C13.5444 4.84579 13.3061 4.96495 13.028 4.96495C12.75 4.96495 12.5117 4.84579 12.3131 4.6472C12.1145 4.4486 11.9953 4.21028 11.9953 3.93224C11.9953 3.65421 12.1145 3.41589 12.3131 3.21729C12.5117 3.01869 12.75 2.89953 13.028 2.89953C13.3061 2.89953 13.5444 3.01869 13.743 3.21729Z" fill="currentColor"></path>
</svg>