<svg viewBox="0 0 115 36" fill="none" xmlns="http://www.w3.org/2000/svg">
<path d="M41.2447 4.3125C40.8129 4.3125 40.4628 4.66259 40.4628 5.09444V30.7363C40.4628 31.1681 40.8129 31.5182 41.2447 31.5182H45.0064C45.4383 31.5182 45.7884 31.1681 45.7884 30.7363V22.5792H50.5351C53.1207 22.5792 55.3205 21.6853 57.0957 19.9364C58.8709 18.1874 59.7585 16.011 59.7585 13.4458C59.7585 10.8807 58.8709 8.70428 57.0957 6.95534C55.3205 5.2064 53.1207 4.3125 50.5351 4.3125H41.2447ZM45.7884 17.5656V9.32612H50.5351C52.812 9.32612 54.4714 11.0751 54.4714 13.4458C54.4714 15.7778 52.812 17.5656 50.5351 17.5656H45.7884Z" fill="#373B57"/>
<path d="M76.3775 14.3786C74.8724 12.4742 72.7885 11.5414 70.0871 11.5414C67.5015 11.5414 65.3018 12.5519 63.4494 14.5341C61.6356 16.5162 60.7094 18.9259 60.7094 21.8019C60.7094 24.6779 61.6356 27.1264 63.4494 29.1086C65.3018 31.0907 67.5015 31.8748 70.0871 31.8748C72.7885 31.8748 74.8724 31.1296 76.3775 29.2252V30.7363C76.3775 31.1681 76.7276 31.5182 77.1594 31.5182H80.5738C81.0057 31.5182 81.3558 31.1681 81.3558 30.7363V12.7415C81.3558 12.2149 80.8458 11.8389 80.3427 11.9945L76.9283 13.051C76.6008 13.1523 76.3775 13.4552 76.3775 13.798V14.3786ZM67.1927 25.7661C66.1894 24.7168 65.6877 23.3954 65.6877 21.8019C65.6877 20.2084 66.1894 18.887 67.1927 17.8765C68.1961 16.8271 69.4696 16.3219 71.0133 16.3219C72.5569 16.3219 73.8305 16.8271 74.8338 17.8765C75.8758 18.887 76.3775 20.2084 76.3775 21.8019C76.3775 23.3954 75.8758 24.7168 74.8338 25.7661C73.8305 26.7766 72.5569 27.2819 71.0133 27.2819C69.4696 27.2819 68.1961 26.7766 67.1927 25.7661Z" fill="#2F3158"/>
<path d="M93.8242 13.2403C93.8242 12.8084 93.4741 12.4583 93.0423 12.4583H89.4634L89.454 10.3204C89.4517 9.79531 88.9427 9.42168 88.441 9.57684L85.036 10.6299C84.7085 10.7312 84.4851 11.0341 84.4851 11.3769V24.9888C84.4851 30.1286 86.8224 32.1539 93.1285 31.5891C93.5246 31.5537 93.8242 31.2178 93.8242 30.8202V27.7529C93.8242 27.3211 93.4739 26.9718 93.0421 26.9721C90.6094 26.9736 89.4634 26.8939 89.4634 24.9888V17.2776H93.0423C93.4741 17.2776 93.8242 16.9275 93.8242 16.4957V13.2403Z" fill="#373B57"/>
<path d="M107.351 11.5414C104.727 11.5414 102.798 12.4353 101.601 14.262V6.47272C101.601 5.94612 101.091 5.57007 100.588 5.72573L97.1737 6.7822C96.8462 6.88353 96.6229 7.18638 96.6229 7.5292V30.7363C96.6229 31.1681 96.973 31.5182 97.4049 31.5182H100.819C101.251 31.5182 101.601 31.1681 101.601 30.7363V21.0246C101.601 17.7988 103.261 16.2053 105.846 16.2053C108.162 16.2053 109.667 17.6044 109.667 20.2084V30.7363C109.667 31.1681 110.017 31.5182 110.449 31.5182H113.863C114.295 31.5182 114.645 31.1681 114.645 30.7363V19.5866C114.645 17.0603 113.95 15.1171 112.561 13.679C111.21 12.241 109.474 11.5414 107.351 11.5414Z" fill="#373B57"/>
<path fill-rule="evenodd" clip-rule="evenodd" d="M23.6035 4.3125C21.7412 4.3125 20.2316 5.82216 20.2316 7.68442V17.4405C20.2316 19.3027 21.7412 20.8124 23.6035 20.8124C25.4657 20.8124 26.9754 19.3027 26.9754 17.4405V7.68443C26.9754 5.82216 25.4657 4.3125 23.6035 4.3125ZM10.1153 14.9969C10.1153 13.1347 11.625 11.625 13.4872 11.625C15.3495 11.625 16.8591 13.1347 16.8591 14.9969V24.753C16.8591 26.6152 15.3495 28.1249 13.4872 28.1249C11.625 28.1249 10.1153 26.6152 10.1153 24.753V14.9969ZM0 22.8719C0 21.0097 1.50966 19.5 3.37192 19.5C5.23419 19.5 6.74385 21.0097 6.74385 22.8719V32.628C6.74385 34.4902 5.23419 35.9999 3.37192 35.9999C1.50966 35.9999 0 34.4902 0 32.628V22.8719Z" fill="#11DEAD"/>
<path fill-rule="evenodd" clip-rule="evenodd" d="M3.37192 0C1.50966 0 0 1.50966 0 3.37192V13.128C0 14.9902 1.50966 16.4999 3.37192 16.4999C5.23419 16.4999 6.74385 14.9902 6.74385 13.128V3.37193C6.74385 1.50966 5.23419 0 3.37192 0ZM13.4872 0.375C11.625 0.375 10.1153 1.88466 10.1153 3.74692V5.25302C10.1153 7.11528 11.625 8.62495 13.4872 8.62495C15.3495 8.62495 16.8591 7.11529 16.8591 5.25303V3.74693C16.8591 1.88466 15.3495 0.375 13.4872 0.375Z" fill="#3554F2"/>
</svg>